<svg width="61" height="59" viewBox="0 0 61 59" fill="none" xmlns="http://www.w3.org/2000/svg">
<path d="M30.0845 0.299988C18.1377 0.299988 7.42909 4.79679 0 11.98L30.0845 58.7L60.1689 11.98C52.7733 4.82599 42.0312 0.299988 30.0845 0.299988ZM13.3523 14.9C13.3523 11.688 16.3641 9.05999 20.0452 9.05999C23.7262 9.05999 26.738 11.688 26.738 14.9C26.738 18.112 23.7262 20.74 20.0452 20.74C16.3641 20.74 13.3523 18.112 13.3523 14.9ZM30.0845 38.26C26.4034 38.26 23.3916 35.632 23.3916 32.42C23.3916 29.208 26.4034 26.58 30.0845 26.58C33.7655 26.58 36.7773 29.208 36.7773 32.42C36.7773 35.632 33.7655 38.26 30.0845 38.26Z" fill="#F07807"/>
</svg>
